<svg width="165" height="114" viewBox="0 0 165 114" fill="none" xmlns="http://www.w3.org/2000/svg">
<path d="M72.4624 9.32769C72.4624 9.32769 85.6946 0.48196 98.4869 0.00805276C100.936 -0.106785 103.279 1.01248 104.727 2.9906C106.176 4.96872 106.537 7.54043 105.688 9.84042C103.719 14.9483 102.31 20.2551 101.484 25.667L72.4624 9.32769Z" fill="#3B97D3"/>
<path d="M117.092 80.6403C117.092 80.6403 123.489 113.427 149.331 113.537C147.23 110.619 145.475 107.467 144.103 104.143C142.729 101.178 141.934 97.9775 141.765 94.7135C141.545 88.6093 143.227 82.1024 140.886 76.2182C140.068 74.0153 138.394 72.2345 136.244 71.2834C136.209 71.2462 128.094 66.0559 128.057 66.0203L117.092 80.6403Z" fill="#2980BA"/>
<path d="M43.2212 2.01852C43.2212 2.01852 74.0818 2.01852 118.587 38.3687C127.082 45.3463 130.941 56.5017 128.573 67.2382C126.207 77.9731 118.014 86.4711 107.373 89.2304C86.4001 94.5081 64.8479 97.1364 43.2212 97.0523V2.01852Z" fill="#285680"/>
<path d="M128.497 67.4097C129.833 68.4351 131.264 69.3279 132.773 70.0768C133.047 70.2143 133.326 70.3356 133.613 70.4423H133.65C134.46 70.8305 135.322 71.1022 136.209 71.2462C136.209 71.2672 136.225 71.2834 136.244 71.2834C139.798 72.215 143.562 70.9179 145.786 67.9935C149.732 63.0588 149.989 56.3335 151.963 50.522C153.064 47.457 154.738 44.6281 156.897 42.1874C159.162 39.3941 161.75 36.8774 164.609 34.6955C139.864 27.3475 128.898 51.6187 128.898 51.6187L128.497 67.4097Z" fill="#3B97D3"/>
<path d="M84.0498 51.3987C86.5083 47.5832 90.3222 44.8417 94.7216 43.724C98.6326 42.8458 104.336 43.4668 105.833 48.0733C107.113 51.9842 104.08 56.078 101.631 58.7095C101.631 58.9651 103.385 63.5715 103.495 64.0826C104.049 66.0316 104.036 68.0987 103.459 70.0412C101.96 74.0978 96.9149 73.805 93.5522 73.1111C88.7695 72.0549 84.3685 69.7032 80.8328 66.3131L84.0498 51.3987Z" fill="#3B97D3"/>
<path d="M15.2216 15.4319C22.1393 7.07623 32.3744 2.17218 43.2209 2.01852C43.2209 2.01852 43.6964 2.01852 44.6459 2.09131C47.0429 2.14954 49.4222 2.49243 51.7367 3.11514C51.8839 3.15073 52.0295 3.18793 52.2122 3.22351C58.6836 5.01886 64.5613 8.50119 69.2454 13.313V13.3486C78.5553 23.0726 83.6519 36.0752 83.427 49.5354C83.427 75.7799 65.4444 97.0523 43.2209 97.0523C20.9974 97.0523 3.01318 75.7799 3.01318 49.5354C3.01318 48.9499 3.01318 48.4388 3.05038 47.8533V47.8177" fill="#4482C3"/>
<path d="M31.561 25.3386C29.7463 20.2955 25.4665 16.5398 20.2293 15.3963C18.5747 15.0793 16.8731 15.0906 15.2217 15.4319C12.7697 15.9106 10.4649 16.962 8.49645 18.5034C-0.253854 25.6217 -2.55869 38.0306 3.05056 47.8177V47.8533C5.17101 51.5232 8.76495 54.1047 12.9201 54.9441C20.4396 55.8062 27.6274 51.609 30.5744 44.6378L31.561 25.3386Z" fill="#E6E7E8"/>
<path d="M49.1975 15.0728C40.266 13.4214 31.3879 20.9344 29.3694 31.852C27.3508 42.7697 32.9568 52.9595 41.8883 54.6109C50.8214 56.2623 59.6995 48.7494 61.718 37.8317C63.7366 26.914 58.1306 16.7242 49.1975 15.0728V15.0728Z" fill="#ECF0F1"/>
<path d="M41.8654 84.5884C36.6006 84.5933 31.4669 82.958 27.1742 79.9092C26.1294 79.1263 25.5827 77.8453 25.738 76.5482C25.8948 75.251 26.7311 74.1366 27.9312 73.6238C29.1329 73.1111 30.5159 73.2777 31.5607 74.0605C39.3681 79.3738 49.9218 77.9553 56.0502 70.7723C57.4849 69.3862 59.7639 69.4056 61.1743 70.816C62.5847 72.2264 62.6041 74.5053 61.2196 75.94C56.2217 81.3487 49.2279 84.4736 41.8654 84.5884V84.5884Z" fill="#2C3E50"/>
<path d="M14.7476 33.1234C14.5018 33.1169 14.2575 33.0926 14.0165 33.0506C13.7868 33.0101 13.5653 32.9357 13.3582 32.8306C13.1237 32.7513 12.9021 32.6414 12.6967 32.5023L12.1516 32.0639C11.8298 31.7081 11.5693 31.3005 11.385 30.8573C11.1779 30.4239 11.0776 29.9483 11.0922 29.468C11.0922 27.4494 12.729 25.8126 14.7476 25.8126C16.7662 25.8126 18.403 27.4494 18.403 29.468C18.3965 29.9451 18.2979 30.4174 18.1102 30.8573C17.9242 31.3005 17.6655 31.7081 17.342 32.0639C16.6416 32.7303 15.7148 33.1088 14.7476 33.1234Z" fill="#2C3E50"/>
<path d="M43.9891 33.1234C43.7432 33.1169 43.499 33.0926 43.258 33.0506C43.0283 33.0101 42.8067 32.9357 42.5997 32.8306C42.3652 32.7513 42.142 32.6414 41.9382 32.5023L41.3931 32.0639C41.0712 31.7081 40.8108 31.3005 40.6248 30.8573C40.4194 30.4239 40.3191 29.9483 40.3337 29.468C40.3337 27.4494 41.9689 25.8126 43.9891 25.8126C46.0076 25.8126 47.6428 27.4494 47.6428 29.468C47.638 29.9451 47.5377 30.4174 47.3517 30.8573C47.1657 31.3005 46.9069 31.7081 46.5834 32.0639C45.8815 32.7303 44.9563 33.1088 43.9891 33.1234Z" fill="#2C3E50"/>
</svg>
