<svg width="41" height="34" viewBox="0 0 41 34" fill="none" xmlns="http://www.w3.org/2000/svg">
<path d="M4.2754 14.7486C3.30818 14.7357 2.38139 14.3572 1.68104 13.6892C1.35109 13.3398 1.09068 12.9306 0.912762 12.4826C0.707348 12.0491 0.607068 11.5736 0.620007 11.0948C0.620007 9.07465 2.25685 7.43942 4.2754 7.43942C6.29396 7.43942 7.9308 9.07465 7.9308 11.0948C7.92595 11.572 7.82567 12.0443 7.63805 12.4826C7.46175 12.9306 7.20134 13.3398 6.87138 13.6892C6.16942 14.3556 5.24263 14.734 4.2754 14.7486Z" fill="#90BAE1"/>
<path d="M11.5862 33.0692C10.619 33.0547 9.69218 32.6762 8.99183 32.0082C8.66026 31.6588 8.39985 31.2496 8.22355 30.8032C8.01814 30.3698 7.91786 29.8926 7.9308 29.4138C7.9308 27.3953 9.56764 25.7585 11.5862 25.7585C13.6048 25.7585 15.2416 27.3953 15.2416 29.4138C15.2351 29.891 15.1365 30.3633 14.9488 30.8032C14.7725 31.2496 14.5121 31.6588 14.1822 32.0082C13.4802 32.6762 12.5534 33.0547 11.5862 33.0692Z" fill="#90BAE1"/>
<path d="M40.8277 9.31079C40.8277 14.3572 36.7356 18.4477 31.6892 18.4477C26.6429 18.4477 22.5524 14.3572 22.5524 9.31079C22.5524 4.2644 26.6429 0.172302 31.6892 0.172302C36.7356 0.172302 40.8277 4.2644 40.8277 9.31079Z" fill="#B0D3F0"/>
</svg>
