<svg width="571" height="594" viewBox="0 0 571 594" fill="none" xmlns="http://www.w3.org/2000/svg">
<path fill-rule="evenodd" clip-rule="evenodd" d="M0 0V347.619L1.91941 348.546C18.8735 339.778 51.534 354.246 46.5438 482.265C40.306 642.289 102.204 590.409 103.644 567.027C104.205 557.908 102.869 550.234 101.031 539.672C98.1541 523.148 94.0471 499.556 94.0471 452.306C94.0471 390.342 134.353 365.109 154.506 360.237C163.143 358.532 180.417 372.952 180.417 444.268C180.417 533.414 208.727 476.419 206.328 452.306C205.306 442.032 202.89 437.462 199.934 431.87C195.952 424.338 190.99 414.952 187.135 387.273C180.417 339.047 220.243 338.316 220.723 371.929C221.203 405.541 232.239 423.809 242.795 420.886C253.351 417.963 254.791 373.39 249.993 360.237C245.194 347.085 258.629 313.472 273.024 339.047C284.54 359.507 277.823 436.718 273.024 472.766C272.385 479.829 272.449 496.002 277.823 504.186C284.54 514.416 299.415 510.032 299.895 459.613C300.279 419.278 293.977 376.556 290.778 360.237C289.659 349.764 289.915 328.963 299.895 329.548C309.876 330.132 315.57 361.455 317.169 377.044C319.088 385.081 325.23 397.503 334.443 382.889C343.656 368.275 331.884 341.239 324.846 329.548C323.407 323.215 323.311 309.673 334.443 306.165C348.358 301.781 414.575 306.165 418.414 339.047C419.54 348.699 418.972 362.192 418.347 377.031V377.031V377.031C416.842 412.743 415.01 456.247 435.687 472.766C459.103 491.472 455.68 438.179 451.042 409.195C442.405 386.543 428.586 336.27 442.405 316.395C459.679 291.551 490.388 333.201 488.469 360.237C486.55 387.273 499.025 432.577 521.098 420.886C538.755 411.533 528.455 356.097 521.098 329.548C517.899 293.5 522.729 228.272 567.641 255.747C568.795 256.453 569.915 257.099 571 257.687V0H0Z" fill="url(#paint0_linear)"/>
<defs>
<linearGradient id="paint0_linear" x1="285.5" y1="0" x2="285.5" y2="594" gradientUnits="userSpaceOnUse">
<stop stop-color="#3B97D3"/>
<stop offset="1" stop-color="white" stop-opacity="0.92"/>
</linearGradient>
</defs>
</svg>
